G04 ================== begin FILE IDENTIFICATION RECORD ==================*
G04 Layout Name:  LM3409 LED Driver for PC Flashlight.brd*
G04 Film Name:    ASSYTOP*
G04 File Format:  Gerber RS274X*
G04 File Origin:  Cadence Allegro 17.2-S018*
G04 Origin Date:  Thu May 04 12:06:22 2017*
G04 *
G04 Layer:  DRAWING FORMAT/OUTLINE*
G04 Layer:  DRAWING FORMAT/TITLE_BLOCK*
G04 Layer:  DRAWING FORMAT/TITLE_DATA*
G04 Layer:  BOARD GEOMETRY/ASSEMBLY_NOTES*
G04 Layer:  BOARD GEOMETRY/ASSEMBLY_DETAIL*
G04 Layer:  BOARD GEOMETRY/TOOLING_CORNERS*
G04 Layer:  REF DES/ASSEMBLY_TOP*
G04 Layer:  PACKAGE GEOMETRY/ASSEMBLY_TOP*
G04 Layer:  BOARD GEOMETRY/OUTLINE*
G04 *
G04 Offset:    (0.0 0.0)*
G04 Mirror:    No*
G04 Mode:      Positive*
G04 Rotation:  0*
G04 FullContactRelief:  No*
G04 UndefLineWidth:     4.0*
G04 ================== end FILE IDENTIFICATION RECORD ====================*
%FSLAX25Y25*MOIN*%
%IR0*IPPOS*OFA0.00000B0.00000*MIA0B0*SFA1.00000B1.00000*%
%ADD10C,.003*%
%ADD11C,.008*%
%ADD12C,.0047*%
%ADD13C,.004*%
G75*
%LPD*%
G75*
G54D10*
G01X261500Y66500D02*
X274500D01*
Y79500D01*
X261500D01*
Y66500D01*
G01X263300Y79520D02*
Y80110D01*
X265050D01*
Y79500D01*
X265030D01*
G01X265850Y79520D02*
Y80110D01*
X267610D01*
Y79500D01*
X267590D01*
G01X268410Y79520D02*
Y80110D01*
X270170D01*
Y79500D01*
X270150D01*
G01X270970Y79520D02*
Y80110D01*
X272720D01*
Y79500D01*
X272700D01*
G01Y66480D02*
Y65890D01*
X270950D01*
Y66500D01*
X270970D01*
G01X265030Y66480D02*
Y65890D01*
X263280D01*
Y66500D01*
X263300D01*
G01X275740Y81520D02*
G03I-910J0D01*
G54D11*
G01X19680Y59970D02*
Y63070D01*
X20640D01*
X20950Y62910D01*
X21140Y62710D01*
X21220Y62290D01*
X21140Y61880D01*
X20910Y61620D01*
X20640Y61470D01*
X19680D01*
G01X20640D02*
X21220Y59970D01*
G01X22710Y60430D02*
X22940Y60180D01*
X23200Y60020D01*
X23550Y59970D01*
X23900Y60070D01*
X24160Y60280D01*
X24360Y60640D01*
X24390Y61050D01*
X24320Y61470D01*
X24120Y61730D01*
X23860Y61930D01*
X23590Y61980D01*
X23320Y61930D01*
X22980Y61730D01*
X23090Y63070D01*
X24120D01*
G01X21090Y95380D02*
X21400Y95120D01*
X21750Y94970D01*
X22050D01*
X22360Y95120D01*
X22590Y95380D01*
X22710Y95750D01*
X22630Y96110D01*
X22440Y96420D01*
X22090Y96620D01*
X21630Y96730D01*
X21360Y96930D01*
X21250Y97290D01*
X21330Y97660D01*
X21520Y97910D01*
X21780Y98070D01*
X22050D01*
X22320Y97970D01*
X22550Y97710D01*
G01X23850Y98070D02*
X24390Y94970D01*
X25000Y98070D01*
X25610Y94970D01*
X26150Y98070D01*
G01X28100Y94970D02*
Y98070D01*
X27640Y97450D01*
G01Y94970D02*
X28560D01*
G01X47030Y42680D02*
X43930D01*
Y43640D01*
X44090Y43950D01*
X44290Y44140D01*
X44710Y44220D01*
X45120Y44140D01*
X45380Y43910D01*
X45530Y43640D01*
Y42680D01*
G01Y43640D02*
X47030Y44220D01*
G01X45740Y45820D02*
X45380Y46090D01*
X45170Y46320D01*
X45070Y46630D01*
X45170Y46900D01*
X45380Y47090D01*
X45690Y47240D01*
X46050Y47280D01*
X46360Y47240D01*
X46670Y47090D01*
X46930Y46860D01*
X47030Y46590D01*
X46930Y46280D01*
X46620Y46010D01*
X46150Y45860D01*
X45640Y45820D01*
X44960Y45900D01*
X44600Y46010D01*
X44240Y46200D01*
X43980Y46470D01*
X43930Y46740D01*
X44030Y47010D01*
X44290Y47200D01*
G01X55680Y94960D02*
Y98060D01*
X56640D01*
X56950Y97900D01*
X57140Y97700D01*
X57220Y97280D01*
X57140Y96870D01*
X56910Y96610D01*
X56640Y96460D01*
X55680D01*
G01X56640D02*
X57220Y94960D01*
G01X58710Y95580D02*
X58940Y95220D01*
X59240Y95010D01*
X59590Y94960D01*
X59900Y95010D01*
X60200Y95270D01*
X60390Y95580D01*
X60430Y95890D01*
X60360Y96250D01*
X60090Y96510D01*
X59820Y96610D01*
X59470D01*
G01X59820D02*
X60050Y96770D01*
X60240Y97030D01*
X60320Y97340D01*
X60240Y97650D01*
X60050Y97900D01*
X59700Y98060D01*
X59360Y98010D01*
X59010Y97800D01*
G01X137610Y52970D02*
Y56070D01*
X138370D01*
X138680Y55910D01*
X138910Y55710D01*
X139100Y55400D01*
X139260Y55040D01*
X139290Y54520D01*
X139260Y54000D01*
X139100Y53640D01*
X138910Y53330D01*
X138680Y53120D01*
X138370Y52970D01*
X137610D01*
G01X140710Y53590D02*
X140940Y53230D01*
X141240Y53020D01*
X141590Y52970D01*
X141900Y53020D01*
X142200Y53280D01*
X142390Y53590D01*
X142430Y53900D01*
X142360Y54260D01*
X142090Y54520D01*
X141820Y54620D01*
X141470D01*
G01X141820D02*
X142050Y54780D01*
X142240Y55040D01*
X142320Y55350D01*
X142240Y55660D01*
X142050Y55910D01*
X141700Y56070D01*
X141360Y56020D01*
X141010Y55810D01*
G01X206200Y98290D02*
X206040Y98060D01*
X205940Y97800D01*
Y97490D01*
X206100Y97140D01*
X206350Y96880D01*
X206660Y96680D01*
X207180Y96530D01*
X207650Y96490D01*
X208110Y96570D01*
X208420Y96680D01*
X208730Y96910D01*
X208940Y97180D01*
X209040Y97450D01*
Y97720D01*
X208940Y97990D01*
X208780Y98220D01*
X208580Y98410D01*
G01X209040Y101010D02*
X205940D01*
X208160Y99590D01*
Y101510D01*
G01X231860Y59290D02*
X231700Y59060D01*
X231600Y58800D01*
Y58490D01*
X231760Y58140D01*
X232010Y57880D01*
X232320Y57680D01*
X232840Y57530D01*
X233310Y57490D01*
X233770Y57570D01*
X234080Y57680D01*
X234390Y57910D01*
X234600Y58180D01*
X234700Y58450D01*
Y58720D01*
X234600Y58990D01*
X234440Y59220D01*
X234240Y59410D01*
G01X234080Y60710D02*
X234440Y60940D01*
X234650Y61240D01*
X234700Y61590D01*
X234650Y61900D01*
X234390Y62200D01*
X234080Y62390D01*
X233770Y62430D01*
X233410Y62360D01*
X233150Y62090D01*
X233050Y61820D01*
Y61470D01*
G01Y61820D02*
X232890Y62050D01*
X232630Y62240D01*
X232320Y62320D01*
X232010Y62240D01*
X231760Y62050D01*
X231600Y61700D01*
X231650Y61360D01*
X231860Y61010D01*
G01X237040Y79680D02*
X233940D01*
Y80640D01*
X234100Y80950D01*
X234300Y81140D01*
X234720Y81220D01*
X235130Y81140D01*
X235390Y80910D01*
X235540Y80640D01*
Y79680D01*
G01Y80640D02*
X237040Y81220D01*
G01X234460Y82820D02*
X234150Y83050D01*
X233990Y83320D01*
X233940Y83630D01*
X234040Y84010D01*
X234300Y84280D01*
X234610Y84360D01*
X234920Y84320D01*
X235180Y84160D01*
X235700Y83400D01*
X236060Y83050D01*
X236580Y82820D01*
X237040Y82740D01*
Y84360D01*
G01X232030Y79680D02*
X228930D01*
Y80640D01*
X229090Y80950D01*
X229290Y81140D01*
X229710Y81220D01*
X230120Y81140D01*
X230380Y80910D01*
X230530Y80640D01*
Y79680D01*
G01Y80640D02*
X232030Y81220D01*
G01Y83550D02*
X228930D01*
X229550Y83090D01*
G01X232030D02*
Y84010D01*
G01X225610Y97060D02*
Y94840D01*
X225760Y94370D01*
X226070Y94060D01*
X226450Y93960D01*
X226830Y94060D01*
X227140Y94370D01*
X227290Y94840D01*
Y97060D01*
G01X229550Y93960D02*
Y97060D01*
X229090Y96440D01*
G01Y93960D02*
X230010D01*
G01X242200Y59290D02*
X242040Y59060D01*
X241940Y58800D01*
Y58490D01*
X242100Y58140D01*
X242350Y57880D01*
X242660Y57680D01*
X243180Y57530D01*
X243650Y57490D01*
X244110Y57570D01*
X244420Y57680D01*
X244730Y57910D01*
X244940Y58180D01*
X245040Y58450D01*
Y58720D01*
X244940Y58990D01*
X244780Y59220D01*
X244580Y59410D01*
G01X243750Y60820D02*
X243390Y61090D01*
X243180Y61320D01*
X243080Y61630D01*
X243180Y61900D01*
X243390Y62090D01*
X243700Y62240D01*
X244060Y62280D01*
X244370Y62240D01*
X244680Y62090D01*
X244940Y61860D01*
X245040Y61590D01*
X244940Y61280D01*
X244630Y61010D01*
X244160Y60860D01*
X243650Y60820D01*
X242970Y60900D01*
X242610Y61010D01*
X242250Y61200D01*
X241990Y61470D01*
X241940Y61740D01*
X242040Y62010D01*
X242300Y62200D01*
G01X241190Y80290D02*
X241030Y80060D01*
X240930Y79800D01*
Y79490D01*
X241090Y79140D01*
X241340Y78880D01*
X241650Y78680D01*
X242170Y78530D01*
X242640Y78490D01*
X243100Y78570D01*
X243410Y78680D01*
X243720Y78910D01*
X243930Y79180D01*
X244030Y79450D01*
Y79720D01*
X243930Y79990D01*
X243770Y80220D01*
X243570Y80410D01*
G01Y81710D02*
X243820Y81940D01*
X243980Y82200D01*
X244030Y82550D01*
X243930Y82900D01*
X243720Y83160D01*
X243360Y83360D01*
X242950Y83390D01*
X242530Y83320D01*
X242270Y83120D01*
X242070Y82860D01*
X242020Y82590D01*
X242070Y82320D01*
X242270Y81980D01*
X240930Y82090D01*
Y83120D01*
G01X250040Y79680D02*
X246940D01*
Y80640D01*
X247100Y80950D01*
X247300Y81140D01*
X247720Y81220D01*
X248130Y81140D01*
X248390Y80910D01*
X248540Y80640D01*
Y79680D01*
G01Y80640D02*
X250040Y81220D01*
G01Y83470D02*
X249370Y83550D01*
X248800Y83670D01*
X248280Y83820D01*
X247720Y84010D01*
X246940Y84320D01*
Y82780D01*
G01X261610Y44960D02*
Y48060D01*
X262370D01*
X262680Y47900D01*
X262910Y47700D01*
X263100Y47390D01*
X263260Y47030D01*
X263290Y46510D01*
X263260Y45990D01*
X263100Y45630D01*
X262910Y45320D01*
X262680Y45110D01*
X262370Y44960D01*
X261610D01*
G01X264820Y47540D02*
X265050Y47850D01*
X265320Y48010D01*
X265630Y48060D01*
X266010Y47960D01*
X266280Y47700D01*
X266360Y47390D01*
X266320Y47080D01*
X266160Y46820D01*
X265400Y46300D01*
X265050Y45940D01*
X264820Y45420D01*
X264740Y44960D01*
X266360D01*
G01X266450Y71970D02*
X266140Y72020D01*
X265880Y72230D01*
X265640Y72540D01*
X265490Y72900D01*
X265410Y73310D01*
Y73730D01*
X265490Y74140D01*
X265640Y74500D01*
X265880Y74810D01*
X266140Y75020D01*
X266450Y75070D01*
X266760Y75020D01*
X267020Y74810D01*
X267260Y74500D01*
X267410Y74140D01*
X267490Y73730D01*
Y73310D01*
X267410Y72900D01*
X267260Y72540D01*
X267020Y72230D01*
X266760Y72020D01*
X266450Y71970D01*
G01X266760Y72800D02*
X267220Y71970D01*
G01X268820Y74550D02*
X269050Y74860D01*
X269320Y75020D01*
X269630Y75070D01*
X270010Y74970D01*
X270280Y74710D01*
X270360Y74400D01*
X270320Y74090D01*
X270160Y73830D01*
X269400Y73310D01*
X269050Y72950D01*
X268820Y72430D01*
X268740Y71970D01*
X270360D01*
G01X260680Y94030D02*
Y97130D01*
X261640D01*
X261950Y96970D01*
X262140Y96770D01*
X262220Y96350D01*
X262140Y95940D01*
X261910Y95680D01*
X261640Y95530D01*
X260680D01*
G01X261640D02*
X262220Y94030D01*
G01X265010D02*
Y97130D01*
X263590Y94910D01*
X265510D01*
G54D12*
G01X234100Y101100D02*
Y92960D01*
X230040Y88900D01*
X221900D01*
Y101100D01*
X234100D01*
G54D13*
G01X80000Y0D02*
X200000D01*
X230000Y30000D01*
X280000D01*
Y100000D01*
Y110000D01*
X0D01*
Y100000D01*
Y30000D01*
X50000D01*
X80000Y0D01*
G01X6000Y77000D02*
Y47000D01*
X33500D01*
X36000Y49500D01*
Y77000D01*
X6000D01*
G01X5310Y100920D02*
Y91080D01*
X44690D01*
Y100920D01*
X5310D01*
G01X43130Y48350D02*
Y41650D01*
X46870D01*
Y48350D01*
X43130D01*
G01X61350Y98870D02*
X54650D01*
Y95130D01*
X61350D01*
Y98870D01*
G01X117380Y94170D02*
X94770Y54990D01*
X117380Y15830D01*
X162610D01*
X185230Y55000D01*
X162610Y94170D01*
X117380D01*
G01X125630Y37280D02*
Y72720D01*
X154370D01*
Y37280D01*
X125630D01*
G01X136060Y43190D02*
X143930D01*
G01X140000Y68780D02*
Y60910D01*
G01X136060Y64840D02*
X143930D01*
G01X210870Y91610D02*
Y105390D01*
X203400D01*
Y91610D01*
X210870D01*
G01X229260Y66890D02*
Y53110D01*
X236740D01*
Y66890D01*
X229260D01*
G01X237370Y78150D02*
Y84850D01*
X233630D01*
Y78150D01*
X237370D01*
G01X228630Y84850D02*
Y78150D01*
X232370D01*
Y84850D01*
X228630D01*
G01X253900Y34750D02*
Y59150D01*
X274600D01*
Y34750D01*
X253900D01*
G01X239260Y66890D02*
Y53110D01*
X246740D01*
Y66890D01*
X239260D01*
G01X241030Y84540D02*
Y77460D01*
X244970D01*
Y84540D01*
X241030D01*
G01X249870Y78650D02*
Y85350D01*
X246130D01*
Y78650D01*
X249870D01*
G01X249220Y89110D02*
X276780D01*
Y102890D01*
X249220D01*
Y89110D01*
M02*
