G04 ================== begin FILE IDENTIFICATION RECORD ==================*
G04 Layout Name:  LM3409 LED Driver for PC Flashlight.brd*
G04 Film Name:    ASSYBOT*
G04 File Format:  Gerber RS274X*
G04 File Origin:  Cadence Allegro 17.2-S018*
G04 Origin Date:  Thu May 04 12:06:22 2017*
G04 *
G04 Layer:  BOARD GEOMETRY/ASSEMBLY_DETAILS_REVERSE*
G04 Layer:  DRAWING FORMAT/TITLE_BLOCK_REVERSE*
G04 Layer:  DRAWING FORMAT/TITLE_DATA_REVERSE*
G04 Layer:  DRAWING FORMAT/OUTLINE_REVERSE*
G04 Layer:  BOARD GEOMETRY/ASSEMBLY_NOTES_REVERSE*
G04 Layer:  BOARD GEOMETRY/TOOLING_CORNERS*
G04 Layer:  REF DES/ASSEMBLY_BOTTOM*
G04 Layer:  PACKAGE GEOMETRY/ASSEMBLY_BOTTOM*
G04 Layer:  BOARD GEOMETRY/OUTLINE*
G04 *
G04 Offset:    (0.0 0.0)*
G04 Mirror:    No*
G04 Mode:      Positive*
G04 Rotation:  0*
G04 FullContactRelief:  No*
G04 UndefLineWidth:     4.0*
G04 ================== end FILE IDENTIFICATION RECORD ====================*
%FSLAX25Y25*MOIN*%
%IR0*IPPOS*OFA0.00000B0.00000*MIA0B0*SFA1.00000B1.00000*%
%ADD10C,.008*%
%ADD11C,.004*%
G75*
%LPD*%
G75*
G54D10*
G01X213000Y27000D02*
Y39000D01*
G01X219500Y27000D02*
X213000D01*
G01X222100Y35070D02*
Y31970D01*
G01X222980Y35070D02*
X221220D01*
G01X219770Y31970D02*
Y35070D01*
X218850D01*
X218540Y34910D01*
X218310Y34550D01*
X218230Y34140D01*
X218310Y33730D01*
X218500Y33420D01*
X218850Y33260D01*
X219770D01*
G01X216630Y34550D02*
X216400Y34860D01*
X216130Y35020D01*
X215820Y35070D01*
X215440Y34970D01*
X215170Y34710D01*
X215090Y34400D01*
X215130Y34090D01*
X215290Y33830D01*
X216050Y33310D01*
X216400Y32950D01*
X216630Y32430D01*
X216710Y31970D01*
X215090D01*
G01X213000Y39000D02*
X225000D01*
G01X219100Y81070D02*
Y77970D01*
G01X219980Y81070D02*
X218220D01*
G01X216770Y77970D02*
Y81070D01*
X215850D01*
X215540Y80910D01*
X215310Y80550D01*
X215230Y80140D01*
X215310Y79730D01*
X215500Y79420D01*
X215850Y79260D01*
X216770D01*
G01X212900Y77970D02*
Y81070D01*
X213360Y80450D01*
G01Y77970D02*
X212440D01*
G01X223000Y73000D02*
X217500D01*
G01X211000D02*
Y85000D01*
G01X217500Y73000D02*
X211000D01*
G01Y85000D02*
X223000D01*
G01X225000Y27000D02*
X219500D01*
G01X225000Y39000D02*
Y27000D01*
G01X223000Y85000D02*
Y73000D01*
G01X259320Y65070D02*
Y61970D01*
X257780D01*
G01X256290Y62590D02*
X256060Y62230D01*
X255760Y62020D01*
X255410Y61970D01*
X255100Y62020D01*
X254800Y62280D01*
X254610Y62590D01*
X254570Y62900D01*
X254640Y63260D01*
X254910Y63520D01*
X255180Y63620D01*
X255530D01*
G01X255180D02*
X254950Y63780D01*
X254760Y64040D01*
X254680Y64350D01*
X254760Y64660D01*
X254950Y64910D01*
X255300Y65070D01*
X255640Y65020D01*
X255990Y64810D01*
G54D11*
G01X80000Y0D02*
X200000D01*
X230000Y30000D01*
X280000D01*
Y100000D01*
Y110000D01*
X0D01*
Y100000D01*
Y30000D01*
X50000D01*
X80000Y0D01*
G01X237310Y44310D02*
Y83690D01*
X276690D01*
Y44310D01*
X237310D01*
M02*
