G04 ================== begin FILE IDENTIFICATION RECORD ==================*
G04 Layout Name:  LM3409 LED Driver for PC Flashlight.brd*
G04 Film Name:    PMASKTOP*
G04 File Format:  Gerber RS274X*
G04 File Origin:  Cadence Allegro 17.2-S018*
G04 Origin Date:  Thu May 04 12:06:22 2017*
G04 *
G04 Layer:  PACKAGE GEOMETRY/PASTEMASK_TOP*
G04 Layer:  VIA CLASS/PASTEMASK_TOP*
G04 Layer:  PIN/PASTEMASK_TOP*
G04 Layer:  BOARD GEOMETRY/OUTLINE*
G04 Layer:  BOARD GEOMETRY/TOOLING_CORNERS*
G04 *
G04 Offset:    (0.0 0.0)*
G04 Mirror:    No*
G04 Mode:      Positive*
G04 Rotation:  0*
G04 FullContactRelief:  No*
G04 UndefLineWidth:     4.0*
G04 ================== end FILE IDENTIFICATION RECORD ====================*
%FSLAX25Y25*MOIN*%
%IR0*IPPOS*OFA0.00000B0.00000*MIA0B0*SFA1.00000B1.00000*%
%AMMACRO16*
4,1,20,-.114,-.088,
-.114,-.06,
-.085,-.06,
-.085,.088,
-.065,.088,
-.065,.05,
-.035,.05,
-.035,.088,
-.015,.088,
-.015,.05,
.015,.05,
.015,.088,
.035,.088,
.035,.05,
.065,.05,
.065,.088,
.085,.088,
.085,-.06,
.114,-.06,
.114,-.088,
-.114,-.088,
0.0*
%
%ADD16MACRO16*%
%ADD18R,.0591X.126*%
%AMMACRO13*
21,1,.1969,.315,0.0,0.0,150.*%
%ADD13MACRO13*%
%ADD19R,.02X.05*%
%ADD20R,.0165X.026*%
%ADD14R,.0567X.013*%
%AMMACRO12*
21,1,.1969,.315,0.0,0.0,30.*%
%ADD12MACRO12*%
%ADD10R,.0354X.0236*%
%ADD11R,.0236X.0354*%
%ADD17R,.0394X.0315*%
%ADD15R,.0748X.0748*%
%ADD21C,.004*%
G75*
%LPD*%
G75*
G36*
G01X227670Y94670D02*
Y92260D01*
X225260D01*
Y94670D01*
X227670D01*
G37*
G36*
G01X230740D02*
Y92260D01*
X228330D01*
Y94670D01*
X230740D01*
G37*
G36*
G01X227670Y97740D02*
Y95330D01*
X225260D01*
Y97740D01*
X227670D01*
G37*
G36*
G01X230740D02*
Y95330D01*
X228330D01*
Y97740D01*
X230740D01*
G37*
G36*
G01X266030Y67880D02*
X265440D01*
Y68870D01*
Y72020D01*
X267610D01*
Y67880D01*
X267410D01*
X267210D01*
Y66310D01*
X267020D01*
X266430D01*
X266230D01*
Y67880D01*
X266030D01*
G37*
G36*
G01X269970D02*
X270560D01*
Y72020D01*
X268390D01*
Y67880D01*
X268590D01*
X268790D01*
Y66310D01*
X269770D01*
Y67880D01*
X269970D01*
G37*
G36*
G01X263670Y69260D02*
Y72020D01*
X265050D01*
Y69260D01*
X263670D01*
G37*
G36*
G01X270950D02*
Y72020D01*
X272330D01*
Y69260D01*
X270950D01*
G37*
G36*
G01X264060Y73200D02*
X267210D01*
Y74770D01*
X264060D01*
Y73200D01*
G37*
G36*
G01X268790D02*
X271940D01*
Y74770D01*
X268790D01*
Y73200D01*
G37*
G36*
G01X263080Y73790D02*
X261500D01*
Y72410D01*
X263080D01*
Y73790D01*
G37*
G36*
G01X272920D02*
Y72410D01*
X274500D01*
Y73790D01*
X272920D01*
G37*
G54D10*
X45000Y42050D03*
Y47950D03*
X235500Y78550D03*
X230500D03*
X235500Y84450D03*
X230500D03*
X248000Y79050D03*
Y84950D03*
G54D11*
X55050Y97000D03*
X60950D03*
G54D20*
X271840Y78790D03*
X269280D03*
X266720D03*
X264160D03*
Y67210D03*
X271840D03*
X266720D03*
X269280D03*
G54D21*
G01X80000Y0D02*
X200000D01*
X230000Y30000D01*
X280000D01*
Y100000D01*
Y110000D01*
X0D01*
Y100000D01*
Y30000D01*
X50000D01*
X80000Y0D01*
G54D12*
X88850Y25470D03*
X191140Y84530D03*
G54D13*
X88850D03*
X191140Y25470D03*
G54D14*
X219460Y91060D03*
Y93030D03*
Y95000D03*
Y96970D03*
Y98940D03*
X236540D03*
Y96970D03*
Y95000D03*
Y93030D03*
Y91060D03*
G54D15*
X207130Y103810D03*
Y93190D03*
X233000Y54690D03*
Y65310D03*
X243000Y54690D03*
Y65310D03*
G54D16*
X264250Y51350D03*
G54D17*
X243000Y77850D03*
Y84150D03*
G54D18*
X250800Y96000D03*
X275200D03*
G54D19*
X257000Y36250D03*
X262000D03*
X267000D03*
X272000D03*
M02*
